<?xml version="1.0" standalone="no"?>
<!DOCTYPE svg PUBLIC "-//W3C//DTD SVG 20010904//EN"
 "http://www.w3.org/TR/2001/REC-SVG-20010904/DTD/svg10.dtd">
<svg version="1.0" xmlns="http://www.w3.org/2000/svg"
 width="1544.000000pt" height="500.000000pt" viewBox="0 0 1544.000000 500.000000"
 preserveAspectRatio="xMidYMid meet">

<g transform="translate(0.000000,500.000000) scale(0.100000,-0.100000)"
fill="#000000" stroke="none">
<path d="M0 3760 c0 -682 3 -1240 6 -1240 7 0 397 215 499 275 253 150 385
263 385 331 0 9 -11 29 -25 45 -53 64 -43 158 42 399 120 340 125 359 126 450
0 47 -3 132 -8 189 -9 121 -4 131 76 131 193 0 420 -442 660 -1289 55 -197 69
-233 110 -295 258 -394 1082 -986 1574 -1131 81 -24 105 -27 235 -26 196 2
250 -13 510 -139 285 -138 387 -168 519 -154 36 3 314 69 616 145 796 199 966
230 1281 231 264 0 389 -26 759 -161 249 -91 344 -122 505 -165 285 -75 648
-129 1125 -167 215 -17 1216 -23 1566 -10 903 34 2137 133 3189 256 542 63
924 110 1277 156 210 27 389 49 397 49 14 0 16 168 16 1680 l0 1680 -7720 0
-7720 0 0 -1240z"/>
<path d="M1226 4053 c-3 -10 -10 -82 -17 -160 -14 -168 -6 -275 24 -335 21
-41 25 -43 76 -51 112 -16 146 -59 163 -209 13 -115 -5 -254 -53 -401 -35
-109 -65 -153 -112 -165 -16 -4 -34 -14 -38 -22 -4 -8 -12 -67 -17 -130 -22
-241 -110 -376 -232 -355 l-37 6 -23 -63 c-29 -80 -91 -207 -129 -262 -76
-111 -255 -236 -336 -236 -50 0 -105 54 -162 159 -89 164 -137 212 -230 227
-48 7 -48 7 -31 -33 8 -19 12 -106 13 -278 l0 -250 28 -47 c18 -32 50 -63 97
-95 38 -26 125 -96 194 -154 285 -241 523 -379 774 -447 91 -24 110 -26 312
-26 280 0 645 34 1189 108 163 23 246 38 252 47 25 39 9 94 -100 356 -77 184
-111 299 -111 371 0 127 -134 268 -513 540 -236 169 -279 203 -381 301 -116
112 -177 194 -175 235 2 55 -21 318 -36 416 -40 246 -115 481 -226 704 -49 97
-146 266 -154 266 -2 0 -6 -8 -9 -17z"/>
<path d="M13127 950 c-107 -32 -176 -170 -177 -349 0 -160 47 -288 126 -344
84 -59 201 -44 269 35 64 76 79 133 79 298 0 128 -2 152 -23 203 -51 129 -160
191 -274 157z m140 -115 c45 -47 66 -127 66 -245 0 -177 -53 -280 -143 -280
-89 0 -140 103 -140 282 0 154 38 248 110 277 37 14 71 3 107 -34z"/>
<path d="M14850 944 c-74 -32 -110 -92 -110 -184 0 -87 25 -131 103 -180 133
-83 163 -127 137 -204 -15 -45 -44 -66 -93 -66 -41 0 -70 12 -103 42 -21 19
-21 18 -47 -15 l-26 -34 22 -21 c140 -127 347 -41 347 146 0 78 -47 142 -153
203 -79 47 -100 75 -100 134 0 56 23 91 70 104 33 9 45 8 85 -12 l47 -24 28
29 28 30 -29 23 c-54 43 -144 56 -206 29z"/>
<path d="M12580 590 l0 -350 45 0 45 0 0 155 0 155 95 0 95 0 0 40 0 40 -95 0
-95 0 0 115 0 115 105 0 105 0 0 40 0 40 -150 0 -150 0 0 -350z"/>
<path d="M13550 591 l0 -351 45 0 45 0 0 156 0 155 42 -3 41 -3 57 -150 57
-150 51 -3 50 -3 -64 163 c-37 94 -60 164 -54 166 25 9 74 59 86 89 18 42 18
144 0 187 -8 18 -31 46 -52 62 -36 28 -41 29 -171 32 l-133 4 0 -351z m251
240 c25 -26 29 -37 29 -85 0 -47 -4 -61 -28 -87 -26 -29 -34 -32 -93 -33 l-64
-1 -3 118 -3 117 66 0 c60 0 69 -3 96 -29z"/>
<path d="M14040 590 l0 -350 45 0 45 0 2 273 3 272 59 -225 c93 -353 79 -320
129 -320 l42 0 75 283 75 282 3 -283 2 -282 45 0 45 0 0 350 0 350 -69 0 -70
0 -15 -52 c-8 -29 -41 -153 -73 -275 -33 -129 -60 -215 -64 -205 -3 9 -37 133
-75 275 l-69 257 -67 0 -68 0 0 -350z"/>
</g>
</svg>
